Coordinates
version=1
nRows=4
nColumns=63
inDegrees=yes

Units are S.I. units (second, meters, Newtons, ...)
If the header above contains a line with 'inDegrees', this indicates whether rotational values are in degrees (yes) or radians (no).

endheader
time	pelvis_tilt	pelvis_list	pelvis_rotation	pelvis_tx	pelvis_ty	pelvis_tz	hip_flexion_r	hip_adduction_r	hip_rotation_r	knee_angle_r	knee_angle_r_beta	ankle_angle_r	subtalar_angle_r	mtp_angle_r	hip_flexion_l	hip_adduction_l	hip_rotation_l	knee_angle_l	knee_angle_l_beta	ankle_angle_l	subtalar_angle_l	mtp_angle_l	L5_S1_Flex_Ext	L5_S1_Lat_Bending	L5_S1_axial_rotation	L4_L5_Flex_Ext	L4_L5_Lat_Bending	L4_L5_axial_rotation	L3_L4_Flex_Ext	L3_L4_Lat_Bending	L3_L4_axial_rotation	L2_L3_Flex_Ext	L2_L3_Lat_Bending	L2_L3_axial_rotation	L1_L2_Flex_Ext	L1_L2_Lat_Bending	L1_L2_axial_rotation	L1_T12_Flex_Ext	L1_T12_Lat_Bending	L1_T12_axial_rotation	Abs_r3	Abs_r2	Abs_r1	Abs_t1	Abs_t2	neck_flexion	neck_bending	neck_rotation	arm_flex_r	arm_add_r	arm_rot_r	elbow_flex_r	pro_sup_r	wrist_flex_r	wrist_dev_r	arm_flex_l	arm_add_l	arm_rot_l	elbow_flex_l	pro_sup_l	wrist_flex_l	wrist_dev_l
      6.86440678	      1.16736922	      8.22497371	     91.09127640	      0.10413116	      1.01706727	      0.11233797	     -5.64340834	     -3.26323166	     -4.45706752	      9.68281657	      0.16899703	     14.13770727	      2.24988145	      0.00000000	     -6.72702924	      1.36018087	     -6.03422371	      9.95069069	      0.17367232	      7.87840786	     -4.37732976	      0.00000000	      0.16174465	      0.18450910	      0.91896817	      0.30037599	      0.24539710	      0.97640368	      0.26573029	      0.44861541	      0.97640368	      0.18485796	      0.44861541	      0.80409715	      0.15019608	      0.37625095	      0.74666164	      0.09242089	      0.28580459	      0.68922613	      1.15532587	      2.08720379	      5.11102529	      0.00000000	      0.00000000	     10.26396495	     -2.13569775	     -3.21444196	     33.14305340	    -13.81344211	     18.69782297	    136.71004682	     89.24716823	      5.58547895	     22.82685411	     51.74026731	    -10.01410636	     21.07794955	     77.82289091	     87.18516323	    -22.22148068	    -17.15886171
      6.88135593	      0.96577319	      8.39278998	     91.17608340	      0.10435449	      1.01741441	      0.11237313	     -5.87196634	     -3.43009538	     -4.04653675	      9.65908542	      0.16858284	     14.27603657	      2.33496034	      0.00000000	     -6.86731728	      1.51563461	     -6.22142183	     10.07177782	      0.17578568	      8.45976136	     -4.04080735	      0.00000000	      0.15565141	      0.15885197	      0.84069358	      0.28906024	      0.21127313	      0.89323693	      0.25571971	      0.38623269	      0.89323693	      0.17789400	      0.38623269	      0.73560688	      0.14453790	      0.32393095	      0.68306354	      0.08893922	      0.24606171	      0.63052019	      1.11180248	      1.79696531	      4.67568550	      0.00000000	      0.00000000	      9.24292173	     -2.01598957	     -3.25991669	     32.85757955	    -13.57062634	     18.52659433	    136.04521217	     89.28609437	      4.95946978	     22.83964875	     51.99054442	    -10.13141430	     20.78958863	     76.93496059	     86.80942052	    -22.00955885	    -16.53019163
      6.89830508	      0.75151008	      8.46583751	     91.37385034	      0.10464030	      1.01768265	      0.11251530	     -6.03755463	     -3.57033633	     -3.72374314	      9.54773311	      0.16663938	     14.33398315	      2.20479397	      0.00000000	     -6.95480360	      1.55484906	     -7.46120198	     10.17222165	      0.17753876	      9.01056621	     -2.03874216	      0.00000000	      0.15698472	      0.12723634	      0.78635866	      0.29153633	      0.16922434	      0.83550608	      0.25791020	      0.30936245	      0.83550608	      0.17941784	      0.30936245	      0.68806383	      0.14577601	      0.25946035	      0.63891641	      0.08970107	      0.19708910	      0.58976900	      1.12132618	      1.43932297	      4.37349098	      0.00000000	      0.00000000	      8.38907094	     -1.65150811	     -3.29540760	     32.52394712	    -13.61156841	     18.64607336	    135.27184523	     89.33300775	      2.78000959	     21.70110968	     52.01053598	    -10.05432278	     20.35364694	     76.60179831	     86.03263789	    -20.64588243	    -15.82096381
      6.91525424	      0.62835656	      8.50668833	     91.28797757	      0.10544240	      1.01789503	      0.11278458	     -6.05554391	     -3.61119461	     -2.84709871	      9.52743892	      0.16628518	     14.34732222	      1.39486106	      0.00000000	     -6.96608337	      1.41916205	     -9.79542172	     10.51759617	      0.18356668	      9.39293933	      0.98239772	      0.00000000	      0.15177353	      0.10503618	      0.81127063	      0.28185862	      0.13969811	      0.86197504	      0.24934873	      0.25538496	      0.86197504	      0.17346197	      0.25538496	      0.70986180	      0.14093690	      0.21418977	      0.65915738	      0.08672339	      0.16270104	      0.60845297	      1.08410314	      1.18819023	      4.51204385	      0.00000000	      0.00000000	      7.79977451	     -1.32780695	     -3.60817230	     32.22471532	    -14.43870427	     20.99972327	    134.25873567	     89.35305917	     -7.81670608	     15.97454967	     51.96992826	     -9.72976178	     19.85662473	     76.46415731	     85.85308466	    -19.15725828	    -15.63670561
